<svg width="48" height="48" xmlns="http://www.w3.org/2000/svg">

 <g>
  <title>background</title>
  <rect fill="none" id="canvas_background" height="602" width="802" y="-1" x="-1"/>
 </g>
 <g>
  <title>Layer 1</title>
  <path stroke="null" id="svg_1" d="m44.53433,1.54199l-41.78624,0l3.68702,41.78624l17.2061,4.91603l17.2061,-4.91603l3.68702,-41.78624l0,0z" fill="#0277BD"/>
  <path stroke="null" id="svg_2" d="m23.87021,2.55726l0,43.98668l15.4436,-4.41246l3.44723,-39.57422l-18.89083,0z" fill="#039BE5"/>
  <path stroke="null" id="svg_3" d="m35.7183,8.56053l-12.09056,0l0,5.31453l6.5103,0l-0.39859,5.31453l-6.11171,0l0,5.31453l5.84599,0l-0.39859,5.97885l-5.4474,1.86009l0,5.58026l10.4962,-3.45445l0.93004,-15.27928l0,0l0.66432,-10.62907z" fill="#FFF"/>
  <path stroke="null" id="svg_4" d="m23.87021,8.49818l0,5.33223l-12.00155,0l-0.40455,-5.33223l12.4061,0zm-6.20305,10.66445l0.2697,5.33223l5.93335,0l0,-5.33223l-6.20305,0zm0.5394,7.99834l-5.39396,0l0.40455,7.33181l10.65306,3.46595l0,-5.59884l-5.52881,-1.86628l-0.13485,-3.33264z" fill="#EEE"/>
 </g>
</svg>