<svg width="28" height="60" viewBox="0 0 28 60" fill="none" xmlns="http://www.w3.org/2000/svg">
<path d="M23.9029 46.0641L22.197 48.9002L21.641 58.1442C21.641 59.1702 18.2152 60.0002 14.0034 60.0002C9.79156 60.0002 6.36571 59.1702 6.36571 58.1442L5.66374 48.9922L3.85983 46.0641C8.8476 48.0582 19.1091 47.9902 23.9029 46.0641ZM0.181991 16.8661L1.82792 31.3321C2.54188 29.0261 4.3458 25.9141 6.6697 24.9701C7.43167 24.6581 8.20763 24.6581 8.9336 25.0741C9.56357 25.4201 10.0955 26.1461 10.1555 26.4341C10.3015 27.1841 9.91355 27.4821 9.61157 27.4821C9.24758 27.4821 8.9696 26.9521 8.7876 26.6401C8.29163 25.7981 7.54166 25.7641 6.7417 26.3181C5.90573 26.8941 5.17977 27.8621 4.67179 28.7041C4.05382 29.7181 3.53384 30.8361 3.21985 31.9541C3.03786 32.6001 2.86987 33.6361 3.14786 34.2481C3.26985 34.5021 3.44985 34.6621 3.74183 34.6621C4.3478 34.6621 5.22976 33.9021 5.65374 33.4981C6.19772 32.9801 6.89969 32.1721 7.16568 31.6541L7.79565 29.8681C8.10963 29.0841 8.99359 29.2221 8.99359 29.8681C8.99359 31.0441 8.54562 31.4361 7.78365 33.8681C7.08168 36.1161 6.86369 36.8421 6.86369 36.8421C6.7797 37.1641 6.45171 37.7061 6.10172 37.7061C5.95573 37.7061 5.84774 37.6601 5.78774 37.5681C5.66575 37.4061 5.67974 36.9581 5.69174 36.8421C5.71574 36.4741 6.45371 34.2841 6.5757 33.9381C6.33372 34.1921 6.07973 34.4461 5.80174 34.6981C5.14777 35.2861 4.09582 36.0581 3.19986 36.0581C2.78788 36.0581 2.52189 35.9541 2.2679 35.7821L3.18786 44.9581C3.42985 45.5341 7.93164 46.9302 13.8614 46.9302C19.8031 46.9302 24.3049 45.5241 24.5349 44.9581L25.8548 34.0541C25.1649 34.6541 24.3669 35.3921 23.4829 35.7601C22.829 36.0261 21.377 36.1981 21.377 35.1021C21.377 34.5021 22.479 33.3961 23.119 32.6241C23.289 32.4281 23.6869 31.9441 23.6869 31.6901C23.6869 31.3561 22.961 31.4361 22.271 31.9781C21.883 32.2901 21.521 32.7041 21.219 33.0961C20.6991 33.7881 20.4211 34.3861 20.1911 34.8821C19.4411 36.5181 19.6951 35.8741 19.0891 37.4181C18.4832 38.9521 18.5812 38.7781 18.4592 39.0321C18.3512 39.2521 18.1932 39.4361 17.9752 39.5501C17.7452 39.6661 17.4312 39.6541 17.2372 39.5161C17.1292 39.4461 17.0792 39.2961 17.0792 39.0901C17.0792 38.9861 17.0912 38.8821 17.1152 38.7781C17.2972 38.0741 18.0592 36.6921 18.9311 34.8241C19.1251 34.3981 19.0531 34.5241 19.0271 34.5581C18.2772 35.2501 17.7072 35.5841 17.2852 35.7681C16.5833 36.0681 15.7113 36.0681 15.5313 35.2961C15.5193 35.2501 15.5193 35.2041 15.5073 35.1581C14.0794 36.2181 12.5654 36.5061 13.0874 34.2241C12.5314 35.1701 11.5635 35.9421 10.3755 35.9421C9.87955 35.9421 9.51557 35.7801 9.33558 35.3541C9.05759 34.7201 9.49357 33.6361 9.89156 32.6101C10.0975 32.0921 10.3755 31.4681 10.7515 30.7421C10.9455 30.3501 11.2595 30.1201 11.6715 30.2241C11.7435 30.2481 11.8055 30.2701 11.8655 30.3041C12.1795 30.5121 12.0595 30.8221 11.9015 31.1341C11.4415 31.9981 11.0415 32.6321 10.7755 33.5321C10.6675 33.9121 10.5335 34.5701 10.9575 34.5701C11.2475 34.5701 11.5255 34.4781 11.7935 34.2941C12.3494 33.9021 12.7974 33.3141 13.1374 32.7381C13.3794 32.3241 13.6694 31.7821 13.8154 31.3201C13.8754 31.1241 13.9494 30.9401 14.0334 30.7661C14.1674 30.4781 14.3474 30.1781 14.6633 30.1781C14.8213 30.1781 14.9533 30.2361 15.0513 30.3501C15.2573 30.6041 15.2093 30.8681 15.0993 31.1461C14.8573 31.7921 14.5313 32.3681 14.2634 33.0701C14.1054 33.4741 13.9374 33.9921 13.9374 34.4181C13.9374 34.8101 14.3854 34.7181 14.7613 34.5561C15.0513 34.4301 15.3413 34.2341 15.5853 34.0381C15.7313 33.4741 15.6933 33.6001 18.7812 26.1761C18.9391 25.7961 19.2291 25.6341 19.5191 25.6341C19.6651 25.6341 19.7851 25.6801 19.9071 25.7601C20.1131 25.9101 20.1131 26.2321 20.0291 26.4741C19.9451 26.6941 19.9571 26.6241 19.4851 27.6841C18.8552 29.0781 18.4452 30.0821 17.8872 31.3621C17.6572 31.8921 16.9552 33.5401 16.8352 33.9321C16.7632 34.1861 16.6772 34.6001 16.9572 34.6001C17.6112 34.6001 19.2931 33.0901 19.7531 32.6401C19.7771 32.6061 19.8131 32.5941 19.8611 32.5701C19.9331 32.3501 20.0071 32.1441 20.0671 31.9361C20.2371 31.4981 20.3931 30.9901 20.7091 30.6341C20.8051 30.5181 20.9151 30.4501 21.0351 30.4501C21.373 30.4501 21.543 30.5881 21.543 30.9121C21.543 31.0381 21.459 31.5001 21.409 31.6261C21.579 31.4541 21.759 31.2801 21.953 31.1081C23.7689 29.5061 25.0629 30.3241 25.0629 31.1321C25.0629 31.9841 23.9849 33.1721 23.3929 33.8301C23.199 34.0501 22.799 34.4521 22.787 34.5681C22.787 34.7181 22.895 34.7761 23.053 34.7761C23.295 34.7761 23.8269 34.3721 24.0209 34.2341C24.6269 33.7841 25.4489 33.0921 26.0308 32.6081L27.8227 16.8401C24.1209 18.8141 3.89782 18.8261 0.181991 16.8661ZM27.9807 15.8881C27.9807 18.3081 0 18.3081 0 15.8881C0 14.874 6.26972 14.056 13.9914 14.056C15.0813 14.056 16.1453 14.068 17.1752 14.102L18.6892 8.89003L26.1188 0.066001C26.2888 -0.0959995 26.8208 0.042001 27.3168 0.470002C27.8127 0.896004 28.1147 1.38001 27.9587 1.54201L27.9467 1.55401L20.9991 9.91403L19.7991 14.204C24.6289 14.504 27.9807 15.1381 27.9807 15.8881ZM19.5811 16.4181C19.5811 16.3261 19.4731 16.2461 19.2791 16.1761L19.2551 16.2681C19.2551 16.4181 18.6492 16.5441 17.9112 16.5441C17.1732 16.5441 16.5673 16.4181 16.5673 16.2681C16.5673 16.2561 16.5673 16.2441 16.5793 16.2341L16.6033 16.1541C16.3853 16.2241 16.2393 16.3161 16.2393 16.4201C16.2393 16.6621 16.9892 16.8461 17.8972 16.8461C18.8312 16.8561 19.5811 16.6601 19.5811 16.4181Z" fill="#D34A47"/>
</svg>
