<svg width="48" height="48" xmlns="http://www.w3.org/2000/svg">

 <g>
  <title>background</title>
  <rect fill="none" id="canvas_background" height="602" width="802" y="-1" x="-1"/>
 </g>
 <g>
  <title>Layer 1</title>
  <path stroke="null" id="svg_1" d="m44.40425,1.17021l-40.95035,0l3.61327,40.95035l16.86191,4.81769l16.86191,-4.81769l3.61327,-40.95035l0,0z" fill="#E65100"/>
  <path stroke="null" id="svg_2" d="m24.14184,2.75177l0,42.13865l14.79476,-4.22707l3.3024,-37.91157l-18.09716,0z" fill="#FF6D00"/>
  <path stroke="null" id="svg_3" d="m23.85816,23.96855l0,-4.80173l10.32371,0l-0.8403,13.80496l-9.48341,3.12112l0,-5.04181l4.92177,-1.6806l0.36013,-5.40194l-5.2819,0zm10.68384,-9.60345l0.36013,-4.80173l-11.04397,0l0,4.80173l10.68384,0z" fill="#FFF"/>
  <path stroke="null" id="svg_4" d="m24,31.04184l0,5.05106l-9.50081,-3.12685l-0.48105,-6.61449l4.81054,0l0.24053,3.00659l4.9308,1.68369zm-5.89291,-16.71662l5.89291,0l0,-4.81054l-10.94397,0l0.84184,14.43161l10.10213,0l0,-4.81054l-5.53212,0l-0.36079,-4.81054z" fill="#EEE"/>
 </g>
</svg>